<svg xmlns="http://www.w3.org/2000/svg" xmlns:xlink="http://www.w3.org/1999/xlink" width="500" zoomAndPan="magnify" viewBox="0 0 375 374.999991" height="500" preserveAspectRatio="xMidYMid meet" version="1.2"><defs><clipPath id="ffe4808f7a"><path d="M 122 199 L 252 199 L 252 337.5 L 122 337.5 Z M 122 199 "/></clipPath><clipPath id="93a16f29d7"><path d="M 294 173 L 324.207031 173 L 324.207031 193 L 294 193 Z M 294 173 "/></clipPath><clipPath id="f299fb870c"><path d="M 164 37.5 L 210 37.5 L 210 123 L 164 123 Z M 164 37.5 "/></clipPath><clipPath id="4784cc3160"><path d="M 50.457031 173 L 81 173 L 81 193 L 50.457031 193 Z M 50.457031 173 "/></clipPath></defs><g id="5090e245ab"><g clip-rule="nonzero" clip-path="url(#ffe4808f7a)"><path style=" stroke:none;fill-rule:nonzero;fill:#667d53;fill-opacity:1;" d="M 196.726562 250.371094 C 216.117188 216.027344 250.21875 199.890625 251.695312 199.199219 C 221.601562 210.726562 201.101562 224.609375 187.332031 239.058594 C 186.324219 238 185.277344 236.941406 184.191406 235.886719 C 170.511719 222.582031 150.859375 209.878906 122.972656 199.199219 C 124.386719 199.859375 155.742188 214.699219 175.429688 246.144531 C 176.292969 247.523438 177.128906 248.929688 177.945312 250.371094 C 147.238281 293.265625 168.019531 337.128906 168.019531 337.128906 L 206.648438 337.128906 C 206.648438 337.128906 226.070312 296.136719 199.621094 254.65625 C 195.980469 261.496094 193.199219 268.667969 191.273438 276.171875 C 190.660156 278.570312 190.144531 280.996094 189.71875 283.453125 C 191.617188 295.121094 191.617188 306.789062 189.71875 318.457031 C 189.125 322.265625 188.328125 326.175781 187.332031 330.183594 C 181.816406 308.109375 182.75 289.046875 187.332031 272.828125 C 189.5625 264.964844 192.691406 257.480469 196.726562 250.371094 Z M 196.726562 250.371094 "/></g><path style=" stroke:none;fill-rule:nonzero;fill:#667d53;fill-opacity:1;" d="M 209.035156 185.695312 C 209.203125 186.40625 209.335938 187.125 209.433594 187.847656 C 209.53125 188.574219 209.59375 189.300781 209.621094 190.03125 C 209.644531 190.761719 209.636719 191.488281 209.589844 192.21875 C 209.542969 192.945312 209.460938 193.671875 209.34375 194.394531 C 209.230469 195.113281 209.078125 195.828125 208.890625 196.535156 C 208.703125 197.238281 208.480469 197.933594 208.226562 198.617188 C 207.96875 199.304688 207.683594 199.972656 207.359375 200.628906 C 207.039062 201.285156 206.6875 201.921875 206.304688 202.542969 C 205.917969 203.167969 205.503906 203.765625 205.0625 204.347656 C 204.621094 204.929688 204.148438 205.484375 203.652344 206.019531 C 203.152344 206.554688 202.628906 207.0625 202.082031 207.546875 C 201.535156 208.03125 200.964844 208.484375 200.371094 208.910156 C 199.78125 209.339844 199.167969 209.734375 198.535156 210.101562 C 197.90625 210.46875 197.257812 210.804688 196.59375 211.109375 C 195.929688 211.410156 195.25 211.679688 194.558594 211.917969 C 193.867188 212.15625 193.167969 212.355469 192.457031 212.523438 C 191.746094 212.691406 191.027344 212.824219 190.304688 212.921875 C 189.582031 213.019531 188.855469 213.082031 188.125 213.105469 C 187.394531 213.132812 186.664062 213.125 185.933594 213.078125 C 185.207031 213.03125 184.480469 212.949219 183.761719 212.832031 C 183.039062 212.714844 182.328125 212.5625 181.621094 212.378906 C 180.914062 212.191406 180.21875 211.96875 179.535156 211.714844 C 178.851562 211.457031 178.179688 211.167969 177.523438 210.847656 C 176.867188 210.527344 176.230469 210.175781 175.609375 209.789062 C 174.988281 209.40625 174.386719 208.992188 173.804688 208.550781 C 173.226562 208.105469 172.667969 207.636719 172.132812 207.140625 C 171.597656 206.640625 171.089844 206.117188 170.605469 205.570312 C 170.125 205.023438 169.667969 204.453125 169.242188 203.859375 C 168.816406 203.265625 168.417969 202.65625 168.050781 202.023438 C 167.683594 201.390625 167.347656 200.746094 167.046875 200.078125 C 166.742188 199.414062 166.472656 198.738281 166.234375 198.046875 C 166 197.355469 165.796875 196.65625 165.628906 195.945312 C 165.460938 195.234375 165.328125 194.515625 165.230469 193.792969 C 165.132812 193.066406 165.070312 192.339844 165.046875 191.613281 C 165.019531 190.882812 165.03125 190.152344 165.074219 189.421875 C 165.121094 188.695312 165.203125 187.96875 165.320312 187.25 C 165.4375 186.527344 165.589844 185.8125 165.777344 185.109375 C 165.964844 184.402344 166.183594 183.707031 166.441406 183.023438 C 166.695312 182.339844 166.984375 181.667969 167.304688 181.011719 C 167.625 180.355469 167.980469 179.71875 168.363281 179.097656 C 168.746094 178.476562 169.160156 177.875 169.605469 177.292969 C 170.046875 176.710938 170.515625 176.15625 171.015625 175.621094 C 171.511719 175.085938 172.035156 174.578125 172.582031 174.09375 C 173.132812 173.613281 173.703125 173.15625 174.292969 172.730469 C 174.886719 172.300781 175.5 171.90625 176.128906 171.539062 C 176.761719 171.171875 177.410156 170.835938 178.074219 170.53125 C 178.738281 170.230469 179.414062 169.960938 180.105469 169.722656 C 180.796875 169.488281 181.5 169.285156 182.210938 169.117188 C 182.921875 168.949219 183.636719 168.816406 184.363281 168.71875 C 185.085938 168.621094 185.8125 168.558594 186.542969 168.535156 C 187.273438 168.507812 188 168.519531 188.730469 168.5625 C 189.460938 168.609375 190.183594 168.691406 190.90625 168.808594 C 191.625 168.925781 192.339844 169.078125 193.046875 169.265625 C 193.75 169.453125 194.445312 169.671875 195.132812 169.929688 C 195.816406 170.183594 196.484375 170.472656 197.140625 170.792969 C 197.796875 171.113281 198.4375 171.464844 199.058594 171.851562 C 199.679688 172.234375 200.28125 172.648438 200.859375 173.089844 C 201.441406 173.535156 202 174.003906 202.53125 174.503906 C 203.066406 175 203.574219 175.523438 204.058594 176.070312 C 204.542969 176.617188 204.996094 177.1875 205.425781 177.78125 C 205.851562 178.375 206.25 178.984375 206.613281 179.617188 C 206.980469 180.25 207.316406 180.898438 207.621094 181.5625 C 207.921875 182.226562 208.195312 182.902344 208.429688 183.59375 C 208.667969 184.285156 208.871094 184.988281 209.035156 185.695312 Z M 209.035156 185.695312 "/><path style=" stroke:none;fill-rule:nonzero;fill:#667d53;fill-opacity:1;" d="M 238.996094 147.308594 L 222.6875 177.199219 C 265.808594 168.566406 255.539062 126.949219 255.539062 126.949219 C 217.019531 131.757812 216.496094 161.167969 217.890625 172.976562 Z M 238.996094 147.308594 "/><path style=" stroke:none;fill-rule:nonzero;fill:#667d53;fill-opacity:1;" d="M 292.503906 170.953125 C 265.082031 161.410156 254.765625 182.40625 251.695312 191.378906 L 274.527344 180.023438 L 253.476562 196.039062 C 285.277344 204.382812 292.503906 170.953125 292.503906 170.953125 Z M 292.503906 170.953125 "/><path style=" stroke:none;fill-rule:nonzero;fill:#667d53;fill-opacity:1;" d="M 241.203125 222.097656 L 265.25 230.578125 L 239.097656 226.621094 C 255.25 255.253906 284.277344 237.164062 284.277344 237.164062 C 272.035156 210.835938 249.78125 218.050781 241.203125 222.097656 Z M 241.203125 222.097656 "/><path style=" stroke:none;fill-rule:nonzero;fill:#667d53;fill-opacity:1;" d="M 288.417969 209.453125 L 305.386719 215.839844 L 287 212.660156 C 298.699219 233.367188 318.8125 220.804688 318.8125 220.804688 C 309.882812 201.800781 294.378906 206.671875 288.417969 209.453125 Z M 288.417969 209.453125 "/><g clip-rule="nonzero" clip-path="url(#93a16f29d7)"><path style=" stroke:none;fill-rule:nonzero;fill:#667d53;fill-opacity:1;" d="M 294.476562 188.375 L 311.109375 181.15625 L 295.691406 191.664062 C 318.5 198.398438 324.207031 175.386719 324.207031 175.386719 C 304.574219 167.945312 296.824219 182.230469 294.476562 188.375 Z M 294.476562 188.375 "/></g><path style=" stroke:none;fill-rule:nonzero;fill:#667d53;fill-opacity:1;" d="M 291.417969 138.484375 C 271.785156 131.042969 264.035156 145.328125 261.6875 151.472656 L 278.320312 144.257812 L 262.902344 154.765625 C 285.710938 161.5 291.417969 138.484375 291.417969 138.484375 Z M 291.417969 138.484375 "/><path style=" stroke:none;fill-rule:nonzero;fill:#667d53;fill-opacity:1;" d="M 206.34375 123.457031 C 188.972656 135.253906 196.214844 149.804688 199.894531 155.253906 L 203.542969 137.492188 L 203.285156 156.148438 C 221.902344 141.347656 206.34375 123.457031 206.34375 123.457031 Z M 206.34375 123.457031 "/><path style=" stroke:none;fill-rule:nonzero;fill:#667d53;fill-opacity:1;" d="M 313.070312 153.570312 C 313.070312 154.085938 313.019531 154.59375 312.917969 155.101562 C 312.820312 155.605469 312.671875 156.09375 312.472656 156.570312 C 312.277344 157.046875 312.035156 157.5 311.75 157.925781 C 311.460938 158.355469 311.136719 158.75 310.773438 159.117188 C 310.410156 159.480469 310.011719 159.804688 309.585938 160.089844 C 309.15625 160.375 308.703125 160.617188 308.226562 160.816406 C 307.753906 161.011719 307.261719 161.160156 306.757812 161.261719 C 306.253906 161.363281 305.742188 161.414062 305.226562 161.414062 C 304.710938 161.414062 304.203125 161.363281 303.695312 161.261719 C 303.191406 161.160156 302.703125 161.011719 302.226562 160.816406 C 301.75 160.617188 301.296875 160.375 300.871094 160.089844 C 300.441406 159.804688 300.046875 159.480469 299.679688 159.117188 C 299.316406 158.75 298.992188 158.355469 298.707031 157.925781 C 298.421875 157.5 298.179688 157.046875 297.980469 156.570312 C 297.785156 156.09375 297.636719 155.605469 297.535156 155.101562 C 297.433594 154.59375 297.382812 154.085938 297.382812 153.570312 C 297.382812 153.054688 297.433594 152.542969 297.535156 152.039062 C 297.636719 151.535156 297.785156 151.042969 297.980469 150.566406 C 298.179688 150.09375 298.421875 149.640625 298.707031 149.210938 C 298.992188 148.785156 299.316406 148.386719 299.679688 148.023438 C 300.046875 147.660156 300.441406 147.335938 300.871094 147.046875 C 301.296875 146.761719 301.75 146.519531 302.226562 146.324219 C 302.703125 146.125 303.191406 145.976562 303.695312 145.878906 C 304.203125 145.777344 304.710938 145.726562 305.226562 145.726562 C 305.742188 145.726562 306.253906 145.777344 306.757812 145.878906 C 307.261719 145.976562 307.753906 146.125 308.226562 146.324219 C 308.703125 146.519531 309.15625 146.761719 309.585938 147.046875 C 310.011719 147.335938 310.410156 147.660156 310.773438 148.023438 C 311.136719 148.386719 311.460938 148.785156 311.75 149.210938 C 312.035156 149.640625 312.277344 150.09375 312.472656 150.566406 C 312.671875 151.042969 312.820312 151.535156 312.917969 152.039062 C 313.019531 152.542969 313.070312 153.054688 313.070312 153.570312 Z M 313.070312 153.570312 "/><path style=" stroke:none;fill-rule:nonzero;fill:#667d53;fill-opacity:1;" d="M 151.980469 177.199219 L 135.671875 147.308594 L 156.777344 172.976562 C 158.167969 161.167969 157.644531 131.757812 119.125 126.949219 C 119.125 126.949219 108.859375 168.566406 151.980469 177.199219 Z M 151.980469 177.199219 "/><g clip-rule="nonzero" clip-path="url(#f299fb870c)"><path style=" stroke:none;fill-rule:nonzero;fill:#667d53;fill-opacity:1;" d="M 188.800781 74.585938 L 190.957031 121.546875 C 202.542969 109.347656 226.867188 75.59375 187.308594 37.511719 C 187.308594 37.511719 140.417969 75.949219 181.945312 122.265625 Z M 188.800781 74.585938 "/></g><path style=" stroke:none;fill-rule:nonzero;fill:#667d53;fill-opacity:1;" d="M 150.632812 120.15625 L 137.375 95.851562 L 154.535156 116.722656 C 155.667969 107.117188 155.242188 83.207031 123.921875 79.296875 C 123.921875 79.296875 115.574219 113.136719 150.632812 120.15625 Z M 150.632812 120.15625 "/><path style=" stroke:none;fill-rule:nonzero;fill:#667d53;fill-opacity:1;" d="M 82.164062 170.953125 C 82.164062 170.953125 89.390625 204.382812 121.191406 196.039062 L 100.140625 180.023438 L 122.972656 191.378906 C 119.902344 182.40625 109.585938 161.410156 82.164062 170.953125 Z M 82.164062 170.953125 "/><path style=" stroke:none;fill-rule:nonzero;fill:#667d53;fill-opacity:1;" d="M 133.464844 222.097656 C 124.882812 218.050781 102.628906 210.835938 90.386719 237.164062 C 90.386719 237.164062 119.417969 255.253906 135.570312 226.621094 L 109.414062 230.578125 Z M 133.464844 222.097656 "/><path style=" stroke:none;fill-rule:nonzero;fill:#667d53;fill-opacity:1;" d="M 86.25 209.453125 C 80.289062 206.671875 64.785156 201.800781 55.855469 220.804688 C 55.855469 220.804688 75.964844 233.367188 87.664062 212.660156 L 69.28125 215.839844 Z M 86.25 209.453125 "/><g clip-rule="nonzero" clip-path="url(#4784cc3160)"><path style=" stroke:none;fill-rule:nonzero;fill:#667d53;fill-opacity:1;" d="M 78.972656 191.664062 L 63.558594 181.15625 L 80.191406 188.375 C 77.84375 182.230469 70.09375 167.945312 50.457031 175.386719 C 50.457031 175.386719 56.164062 198.398438 78.972656 191.664062 Z M 78.972656 191.664062 "/></g><path style=" stroke:none;fill-rule:nonzero;fill:#667d53;fill-opacity:1;" d="M 83.246094 138.484375 C 83.246094 138.484375 88.953125 161.5 111.761719 154.761719 L 96.347656 144.257812 L 112.980469 151.472656 C 110.632812 145.328125 102.882812 131.042969 83.246094 138.484375 Z M 83.246094 138.484375 "/><path style=" stroke:none;fill-rule:nonzero;fill:#667d53;fill-opacity:1;" d="M 113.105469 119.609375 L 94.832031 102.046875 L 115.082031 115.234375 C 112.894531 106.207031 104.882812 84.792969 78.898438 91.539062 C 78.898438 91.539062 83.164062 124.78125 113.105469 119.609375 Z M 113.105469 119.609375 "/><path style=" stroke:none;fill-rule:nonzero;fill:#667d53;fill-opacity:1;" d="M 237.292969 95.851562 L 224.03125 120.15625 C 259.09375 113.136719 250.746094 79.296875 250.746094 79.296875 C 219.425781 83.207031 219 107.117188 220.128906 116.722656 Z M 237.292969 95.851562 "/><path style=" stroke:none;fill-rule:nonzero;fill:#667d53;fill-opacity:1;" d="M 261.5625 119.609375 C 291.5 124.78125 295.769531 91.539062 295.769531 91.539062 C 269.785156 84.792969 261.773438 106.207031 259.585938 115.234375 L 279.832031 102.046875 Z M 261.5625 119.609375 "/><path style=" stroke:none;fill-rule:nonzero;fill:#667d53;fill-opacity:1;" d="M 171.378906 156.148438 L 171.125 137.492188 L 174.769531 155.253906 C 178.453125 149.804688 185.691406 135.253906 168.324219 123.457031 C 168.324219 123.457031 152.761719 141.347656 171.378906 156.148438 Z M 171.378906 156.148438 "/><path style=" stroke:none;fill-rule:nonzero;fill:#667d53;fill-opacity:1;" d="M 72.441406 146.324219 C 72.917969 146.519531 73.367188 146.761719 73.796875 147.046875 C 74.222656 147.335938 74.621094 147.660156 74.984375 148.023438 C 75.347656 148.386719 75.675781 148.785156 75.960938 149.210938 C 76.246094 149.640625 76.488281 150.09375 76.683594 150.566406 C 76.882812 151.042969 77.03125 151.535156 77.132812 152.039062 C 77.230469 152.542969 77.28125 153.054688 77.28125 153.570312 C 77.28125 154.085938 77.230469 154.59375 77.132812 155.101562 C 77.03125 155.605469 76.882812 156.09375 76.683594 156.570312 C 76.488281 157.046875 76.246094 157.5 75.960938 157.925781 C 75.675781 158.355469 75.347656 158.75 74.984375 159.117188 C 74.621094 159.480469 74.222656 159.804688 73.796875 160.089844 C 73.367188 160.375 72.917969 160.617188 72.441406 160.816406 C 71.964844 161.011719 71.472656 161.160156 70.96875 161.261719 C 70.464844 161.363281 69.953125 161.414062 69.4375 161.414062 C 68.925781 161.414062 68.414062 161.363281 67.910156 161.261719 C 67.402344 161.160156 66.914062 161.011719 66.4375 160.816406 C 65.960938 160.617188 65.511719 160.375 65.082031 160.089844 C 64.652344 159.804688 64.257812 159.480469 63.894531 159.117188 C 63.527344 158.75 63.203125 158.355469 62.917969 157.925781 C 62.632812 157.5 62.390625 157.046875 62.191406 156.570312 C 61.996094 156.09375 61.847656 155.605469 61.746094 155.101562 C 61.648438 154.59375 61.597656 154.085938 61.597656 153.570312 C 61.597656 153.054688 61.648438 152.542969 61.746094 152.039062 C 61.847656 151.535156 61.996094 151.042969 62.191406 150.566406 C 62.390625 150.09375 62.632812 149.640625 62.917969 149.210938 C 63.203125 148.785156 63.527344 148.386719 63.894531 148.023438 C 64.257812 147.660156 64.652344 147.335938 65.082031 147.046875 C 65.511719 146.761719 65.960938 146.519531 66.4375 146.324219 C 66.914062 146.125 67.402344 145.976562 67.910156 145.878906 C 68.414062 145.777344 68.925781 145.726562 69.4375 145.726562 C 69.953125 145.726562 70.464844 145.777344 70.96875 145.878906 C 71.472656 145.976562 71.964844 146.125 72.441406 146.324219 Z M 72.441406 146.324219 "/><path style=" stroke:none;fill-rule:nonzero;fill:#667d53;fill-opacity:1;" d="M 154.53125 64.222656 C 154.613281 64.730469 154.644531 65.242188 154.628906 65.753906 C 154.609375 66.269531 154.539062 66.777344 154.421875 67.277344 C 154.304688 67.78125 154.136719 68.265625 153.925781 68.734375 C 153.710938 69.203125 153.453125 69.644531 153.152344 70.0625 C 152.851562 70.480469 152.511719 70.863281 152.132812 71.214844 C 151.757812 71.566406 151.351562 71.878906 150.914062 72.148438 C 150.472656 72.417969 150.015625 72.644531 149.53125 72.824219 C 149.050781 73.003906 148.554688 73.136719 148.046875 73.21875 C 147.539062 73.300781 147.027344 73.332031 146.511719 73.316406 C 145.996094 73.296875 145.488281 73.226562 144.988281 73.109375 C 144.484375 72.992188 144 72.824219 143.53125 72.613281 C 143.0625 72.398438 142.621094 72.140625 142.203125 71.839844 C 141.785156 71.539062 141.402344 71.199219 141.050781 70.824219 C 140.699219 70.445312 140.386719 70.039062 140.117188 69.601562 C 139.847656 69.164062 139.621094 68.703125 139.441406 68.21875 C 139.261719 67.738281 139.128906 67.242188 139.046875 66.734375 C 138.964844 66.226562 138.933594 65.714844 138.953125 65.199219 C 138.96875 64.683594 139.039062 64.175781 139.15625 63.675781 C 139.273438 63.175781 139.441406 62.6875 139.65625 62.222656 C 139.867188 61.753906 140.125 61.308594 140.425781 60.890625 C 140.726562 60.472656 141.066406 60.089844 141.445312 59.738281 C 141.820312 59.386719 142.226562 59.078125 142.664062 58.804688 C 143.105469 58.535156 143.5625 58.308594 144.046875 58.128906 C 144.527344 57.949219 145.023438 57.816406 145.53125 57.734375 C 146.042969 57.652344 146.550781 57.621094 147.066406 57.640625 C 147.582031 57.65625 148.089844 57.726562 148.589844 57.84375 C 149.09375 57.960938 149.578125 58.128906 150.046875 58.34375 C 150.515625 58.554688 150.957031 58.8125 151.375 59.113281 C 151.792969 59.414062 152.175781 59.753906 152.527344 60.132812 C 152.878906 60.507812 153.191406 60.914062 153.460938 61.355469 C 153.730469 61.792969 153.957031 62.253906 154.136719 62.734375 C 154.316406 63.21875 154.449219 63.710938 154.53125 64.222656 Z M 154.53125 64.222656 "/><path style=" stroke:none;fill-rule:nonzero;fill:#667d53;fill-opacity:1;" d="M 235.71875 65.476562 C 235.71875 65.992188 235.667969 66.503906 235.566406 67.007812 C 235.46875 67.511719 235.320312 68.003906 235.121094 68.476562 C 234.925781 68.953125 234.683594 69.40625 234.398438 69.835938 C 234.109375 70.261719 233.785156 70.660156 233.421875 71.023438 C 233.058594 71.386719 232.660156 71.710938 232.234375 72 C 231.804688 72.285156 231.351562 72.527344 230.878906 72.722656 C 230.402344 72.917969 229.910156 73.070312 229.40625 73.167969 C 228.902344 73.269531 228.390625 73.320312 227.875 73.320312 C 227.359375 73.320312 226.851562 73.269531 226.347656 73.167969 C 225.839844 73.070312 225.351562 72.917969 224.875 72.722656 C 224.398438 72.527344 223.945312 72.285156 223.519531 72 C 223.089844 71.710938 222.695312 71.386719 222.332031 71.023438 C 221.964844 70.660156 221.640625 70.261719 221.355469 69.835938 C 221.070312 69.40625 220.828125 68.953125 220.628906 68.476562 C 220.433594 68.003906 220.285156 67.511719 220.183594 67.007812 C 220.082031 66.503906 220.035156 65.992188 220.035156 65.476562 C 220.035156 64.960938 220.082031 64.453125 220.183594 63.945312 C 220.285156 63.441406 220.433594 62.953125 220.628906 62.476562 C 220.828125 62 221.070312 61.546875 221.355469 61.121094 C 221.640625 60.691406 221.964844 60.296875 222.332031 59.929688 C 222.695312 59.566406 223.089844 59.242188 223.519531 58.957031 C 223.945312 58.671875 224.398438 58.429688 224.875 58.230469 C 225.351562 58.035156 225.839844 57.886719 226.347656 57.785156 C 226.851562 57.683594 227.359375 57.632812 227.875 57.632812 C 228.390625 57.632812 228.902344 57.683594 229.40625 57.785156 C 229.910156 57.886719 230.402344 58.035156 230.878906 58.230469 C 231.351562 58.429688 231.804688 58.671875 232.234375 58.957031 C 232.660156 59.242188 233.058594 59.566406 233.421875 59.929688 C 233.785156 60.296875 234.109375 60.691406 234.398438 61.121094 C 234.683594 61.546875 234.925781 62 235.121094 62.476562 C 235.320312 62.953125 235.46875 63.441406 235.566406 63.945312 C 235.667969 64.453125 235.71875 64.960938 235.71875 65.476562 Z M 235.71875 65.476562 "/></g></svg>